<svg t="1600692059576" class="icon" viewBox="0 0 1024 1024" version="1.1" xmlns="http://www.w3.org/2000/svg" p-id="4165" width="128" height="128"><path d="M244.51083 812.295344c0 23.075555-16.553001 41.782615-36.97103 41.782615l0 0c-20.419052 0-36.97103-18.707061-36.97103-41.782615l0-645.675512c0-23.075555 16.553001-41.782615 36.97103-41.782615l0 0c20.419052 0 36.97103 18.707061 36.97103 41.782615L244.51083 812.295344z" p-id="4166"></path><path d="M416.947134 702.493565c0 24.375154-19.760043 44.135196-44.135196 44.135196l0 0c-24.375154 0-44.135196-19.760043-44.135196-44.135196l0-119.951953c0-24.375154 19.760043-44.135196 44.135196-44.135196l0 0c24.375154 0 44.135196 19.760043 44.135196 44.135196L416.947134 702.493565z" p-id="4167"></path><path d="M603.109044 702.493565c0 24.375154-19.760043 44.135196-44.135196 44.135196l0 0c-24.375154 0-44.135196-19.760043-44.135196-44.135196L514.838651 296.886711c0-24.375154 19.760043-44.135196 44.135196-44.135196l0 0c24.375154 0 44.135196 19.760043 44.135196 44.135196L603.109044 702.493565z" p-id="4168"></path><path d="M796.990776 702.493565c0 24.375154-19.760043 44.135196-44.135196 44.135196l0 0c-24.375154 0-44.135196-19.760043-44.135196-44.135196L708.720384 523.884678c0-24.375154 19.760043-44.135196 44.135196-44.135196l0 0c24.375154 0 44.135196 19.760043 44.135196 44.135196L796.990776 702.493565z" p-id="4169"></path><path d="M217.480196 854.076936c-23.075555 0-41.782615-15.854083-41.782615-35.411511l0 0c0-19.557428 18.707061-35.410488 41.782615-35.410488l625.209388 0c23.075555 0 41.782615 15.854083 41.782615 35.410488l0 0c0 19.557428-18.707061 35.411511-41.782615 35.411511L217.480196 854.076936z" p-id="4170"></path></svg>
